<?xml version="1.0" encoding="UTF-8"?>
<svg id="Layer_1" xmlns="http://www.w3.org/2000/svg" version="1.1" viewBox="0 0 450 271">
  <!-- Generator: Adobe Illustrator 30.6.0, SVG Export Plug-In . SVG Version: 2.1.4 Build 109)  -->
  <defs>
    <style>
      .st0 {
        fill: #f59565;
      }

      .st1 {
        fill: #e7634b;
      }

      .st2 {
        fill: #fbdf7e;
      }

      .st3 {
        fill: #f8e7e3;
      }

      .st4 {
        fill: #2c2c29;
      }

      .st5 {
        fill: #867a7d;
      }

      .st6 {
        fill: #f2d4c0;
      }

      .st7 {
        fill: #668796;
      }
    </style>
  </defs>
  <path class="st4" d="M449.7,119c.3,1.4,0,6.9-1.3,7.8,0,0-.4-.6-.4-.7,0-9-3.5-17.3-7.8-25.4-2-3.8-4.8-7.2-7.8-10.1.3-.7.6-1.3.7-2,4.9,3.8,8,8.5,11.4,14.6,1.6,2.7,2.6,5.6,3.8,8.7.9,2.3,1.3,4.6,1.7,7.2h-.3Z"/>
  <path class="st4" d="M433.1,97.5c6.9,11.1,10.1,17.5,9.5,31.1,0,.7-.6,2-1.3,2.3-1.6-.4-2.3-2-2.6-3.5-2.6-10.1-6.5-19.8-15.8-25.4h0l1.7-1.7c6.8,3.9,11.4,11.7,14,18.9l1.4,3.9c.4-9.1-4.9-17.9-9.3-25.3-.4-.7-1-1.4-1.6-2,.4-.4.9-1,1.2-1.6,1.2,1,2,2.3,2.9,3.6l-.3-.3Z"/>
  <path class="st4" d="M427.7,110.8c3.2,3.6,11.3,15.6,7.2,19.8-1.3,1.3-3.6.6-4.9-.4l-4.6-3.5,3.3,5.8c.9,1.4,3.5,5.8,1.9,6.9-2.2,1.6-5.8-2.6-7.4-4.3-.1-.3-.4-.4-.6-.6v-2.2c1.9,1.6,3.5,3.9,5.9,4.6-2.2-5.1-4.9-8.4-7.5-13.2-.1-.3.4-1.2.7-1.3.4,0,1.4,0,1.7.1l7.4,5.5c.6.4,1.9.7,2.5.3.4-.4.7-1.6.4-2.5-1.7-5.5-4.8-10.4-8.5-14.9l-5.5-6.4c.1,0,.3-.3.4-.4l1.2-1.2,6.5,7.5h-.1Z"/>
  <path class="st4" d="M209.1,84.2h-2.2c-.4-.1-.6-1.3-.4-1.7,3-6.5,8.2-9.1,7.5-10.3-.4-.7-1.2-.6-2-.6-3,.4-6.1-1.2-8.1-3.2-.3-.3-.4-1.2-.7-1.2h-1.3c-3.8-.3-7.5-1.2-11-2.7-1.9-.9-3.5-2-5.2-3-2.3-1.3-4.2-2.7-5.9-4.8-.7-.9-1.4-2.2-.3-3h3c4.3-1.3,4.8-.1,6.9-.4h0c0-.1-.6-.7-.6-.7l-1.7-2-2.6-3c-.7-.9-1.7-2.2-.7-3.5,1.2-1.3,3.3-1.2,4.8-.3,1.2.7,2.7.7,3.9,1.2l5.1,1.9,2.2,1.9,2.6,2.3c1.7.4,3.8-1,4.8-2.5l-.7-2.6c-.3-.9,0-2,.7-3-4.2-2.3-5.2-4.8-7.5-6.9l-2-1.9c-2.5-2.2-2-3.3-4.2-6.7.6-.4,1.7-.7,2.7-.7.3-.6.3-1.9.7-2.3.4-.4,1.9-.6,2.5-.4,2.7.7-4-2.9-4-6.2s2.2-1.3,3.2-1c2.2.7,8.1,1.9,10.4,3l6.2,3.3,5.9,2.6c.6.3,1,0,1.7-.4,1.6-.9,3.2-1.2,4.2-1.6.7-.3,1-.4.9-.9-.3-.7.9.3,2.3.1l8.5-.7c2.6-.3,5.3.6,7.7,1.7l-3.3.3c-5.6.4-4.2-.4-11.3.9-1,.1-2.6.3-3.5.6l-4.6,1.4c-.6.1-.9.3,0,.3,1,.9,1.6,1.4,2.5,2.2,1.3,1.3,3,.4,3.5,2.6,0,.4-.6,1.3-1,1.3-.9,0-1.7-.9-2.5-1.4-2.3-1.9-4.6-3.8-7.2-5.2-4.2-2.3-16.3-8.7-20.8-7.7,1.4,1.6,2.5,2.7,3.8,3.9,1.2.9,1.9,1.3,2.5,2.9,0,.3,0,1.3-.3,1.4-.3.3-1,0-1.4-.1l-3.8-1.4c-.3,1.2,1.7,2,1,3.6-.1.4-1.3,1-1.7.9l-.4-.7h-.4c0,1.6,2,3.3,3.3,4.8,2.9,3.2,5.8,5.8,9.3,8.2,1.2.9,2.2,1.4,3.8,1.9,3,.7,5.5,2.3,9.7,2.5h4.5l4.2.3c0-3.5,6.2-8.4,8.7-9.3,2.6-1,5.1-1.6,7.8-1.7,3.3-.3,9.7,2.3,10.8.3.9-1.6,1.6-2.9,2.7-4l-4.6-6.5c-.9-1.2-2.2-2.3-3.5-3-3.3-1.9-6.4-3.9-9.5-6.1l-3.8-2.5c-2.2-1.4-4.3-2.5-6.7-3.3l-5.9-1.9v.3c.9.7,5.2,5.3,3.5,5.9l-1.6.6v2.5c0,.1,0,.7-.1.7,0,0-.6,0-.7-.1l-2.5-.9c-.7-.3-1.9-.1-2.2.3,1,1.4,1.7,2.5,2.6,3.8h-.4c-1.3.1-1.9-.4-2.5-1.3-1.3-2-2.5-2.7-2-4,.7-2,4.3-.6,5.8-.1-.3-1-.7-2.2-1.3-3.2-.3-.4.4-1.4,1-1.9-1-2.3-3.5-2-4.3-3.6-.1-.3.1-1.2.4-1.3.7-.4,2.3-.6,3.2-.3l9.3,3.2c1.2.4,2.6,1,3.6,1.7,1.3.9,2.6,1.4,4.2,2.2,2.3,1.2,4,3.3,6.1,4.8l3.5,2.3,3.6,2.3c1.4,1,2.2,2.3,3.2,3.6l3.3,4.3c4.2-3.5,10.8.3,12.4,4.6.3,1,.7,2,1.2,3,1.4,3.5.7,12.3-2.6,14.2-1.4,1.2,5.3,1.3,5.8,1.3,2,0,3.8,0,4.6,1.7.9,2,.4,3.6-1.2,5.1-.6,1-.7,3-1.4,3.9l-3.3,4-2.3,2.9c-.4.4-1.4,1.3-2,1.6l-4,2.5c1.7,1.7,2.6,3.3,2.7,5.5,5.1-1.2,9.4-1,14-1.9l4.5-.9c5.9-1.2,7.4-2.3,11.7-5.1,1.9-1.2,2.9-2,4.3-3.8,1.7-2.2,4.8-3.3,6.1-5.9l1.7-3.3c-1-1.6-2.7-1.9-4.6-1.9-.9-.1-2.3-1-3-1.2h-2.7l-4.3.6c-.6,0-1.6,0-1.9-.4-.3-.6.1-3.3,1.6-4,4.5-2.7,9.8-6.9,13.9-10.4,1.7-1.4,3.6-2.5,5.2-4,1.9-1.9,5.2-4,8-6.5,2.2-2,4.5-3.9,6.8-5.9l2.3-1.9c1.2-1,2.3-2.2,3.5-3.2l2.9-2.5c5.9-5.2,6.9-6.5,14.2-10,2.3-1.2,4.3-1.6,6.9-1.7h3.8c0-.1,3-.4,3-.4,4.5-.4,9-.3,13.4-.7,1.4-.1,2.9-.3,4.3-.4h5.5c5.2-.4,6.2-.9,11-1.2l3.9-.3c3.2-.3,6.5-.9,9.7-.6l4.9.3c1.2,0,2.5.6,3.6.7,1,.1,1.6.6,2.3,1.4,1.4,1.7,3.9,4,3.2,6.8-1.9,7.1-1.4,4.6-4.5,10.8-1.6,3.2-3.6,5.6-5.8,8.4l-3.5,4.5-4.3,5.1-4.2,5.2-5.8,7.2c-1,4.9-1.9,5.9-3.2,9.8-1.6,4.8-3.3,8-4.5,12.4,1.3.3,2.2.3,3.3,0,2.9-.4,5.9.4,8.8.4,7.8,0,7.7,1,15.2,2.5,1.2.3,2,.6,3.2,1.2,1.3.7,3.3,1,4.2,2.2,1.3,1.6,1.4,3.5.9,5.3-.9-.7-1.7-1.3-2.6-1.9,0-.6-.1-1.2-.4-1.7-.4-1.3-6.1-3.3-7.5-3.8-3.8-1.3-7.5-2.3-11.4-1.3-3.5-1-6.2-.3-9.7-.3h-4.9l-1.2,4.2-1.4,3-2,6.4c0,1-.9,2.7-2.2,2.9l-4,.3c-1.2,0-2.2.1-3-.4-.7-.6-1-1.4-1.2-2.5l-.7-4.6c-.3-1.6-.4-2.9-1-4.3-2.6,2-4.5,4.6-6.9,6.8-3.6,3.2-7.4,5.9-11.1,8.8-.9.6-1.6,1-2.3,2,3.5,1,6.5,1.6,10,1.7,1.6,0,3.2.9,4.6,1l12.6,2.3,14.2,2.3,5.6,1.6c1.7.7,8.8-5.5,11.9-8.2l1.7,2c-.9.7-1.7,1.6-2.6,2.3l-4.5,3.6c-.9.7-2,1-3.2,1.7l3,2.3,2.9,2.6c.7.7,3.6,5.8,4.3,6.9l1.4,3.2c.6,1.2,1.2,2.3,1.2,3.5v1.3c-.6-.4-1.3-1-2-1.2v.3h-.6c-.6-1.4-1.4-2.9-2-4.5-1-2.6-2.5-4.6-4-6.8-3.3-4.6-8.4-6.9-13.9-8.2-4.9-1.2-4.9-.9-10-1.7-1.7-.3-3.2.7-4.6,1.4s-2.3,1.7-3.3,2.9c-3,3.5-4.8,7.2-5.9,11.6l-2,7.1c-.3,1.2-.7,2.2-.9,3.5-1.2,7.5-1.3,18.2-.3,25.9.6,4.9,1.3,12.4,6.4,15,.4-1,1.9-.3,2.6-.6.4-.1,1-.3,1.4-.4.3.7.6,1.6.9,2.3h-.3c-1.2.6-2.7.9-3.8,1.4-1.3,1.2-1.6,3.2-2.3,4.6l-2.5,4.9c5.6,6.2,4.8,4.9,8,12,.9,1.9,1.3,3.2,1.2,5.2,0,1.9.3,3.9-.3,5.8-.9,2.5-1.4,4.6-2.9,6.8-.6.7-1.3,2-1.9,2.6-1.6,1.4-3.5,2.9-5.5,3.8-4.9,2.2-16,1-20-2.5-2.3-2-4-4.3-5.6-6.9-.1.3-.9,1.2-1.2,1.6l-1.4,3c-1.2,2.3-2,4.8-3.3,7.1l-2.5,4.5c3.3,3.6,2.6.7,5.1,4.6.4.7,1.4,1.6,2,2.3.6,2.3,1.7,4.5,1.9,6.8.7,6.9-1.6,9.8-1.7,11-.1,2.3-1.3,3.9-2.6,5.5-1.4,1.9-2.6,3.8-4.2,5.5l-3.3,1c-1,.3-2.3,1-3,1.3l-5.2.7c-3.3.4-6.8-1.2-10-2.3-1.9-.7-6.5-5.9-7.4-7.7-2.3-4.6-1.6-7.4-1.3-13.4,0-1.6.9-3,1.3-4.5.6-2.2.9-4.2,2.7-5.6,1.9-1.3,0-3.2-1.6-6.8l-2.5-5.6-1.9-4.3-2-4.9c-.3-.7-1.3-2.3-2-1.9-1.7,1-3,2.3-4.5,3.5l-3.8,2.7-5.3,4c-1.7,1.3-3.9,2-5.5,3.5-1,.9-1.9,1.6-2.9,2.2l-3.5,2-5.1,2.9c-4.6,2.6-5.6,3.3-11,5.3l-5.2,1.9c-1.7.7-8.1,2-10.1,2.2l-6.8.4h-2.6c-3.2.3-5.5-.3-9.7-.3s-13.2,0-18.2-.6l-5.5-.6h-3.3l-8.7-1c-1.7-.3-3.6-.1-5.3-.4l-2.9-.4c-2.2-.3-4.2-.1-6.2-.9l-3.2-1c-1-.3-1.4-.1-2.3-.6-1.9-.7-3.6-1.4-5.1-2.9l-2.3-2.2.9-4c.4-2.3.9-4.6,3-6.2l4-3,4-2.5,4.9-3,3.6-2.2,2.5-1.4c3.5-2,6.1-4,9-5.3,1.9-.9,3.3-1.9,5.1-2.9l3.5-2.3,6.1-3.9c1.6-1,3.3-1.9,4.8-3.2,5.8-5.2,9.1-6.4,14.5-11.3l-3.2-.6-6.2-.6c-1.2,0-2.3-.6-3.3-.9l-5.8-1.6c-4.6-1.3-6.9-2.5-10.8-3.3l-4.5-1-2.6-.9c-2.5-.9-4.9-1.4-7.2-2.3l-2.6-1.2c-6.5-2.6-13.2-4-20.4-6.9-1.6-.6-3-1.4-4.9-1.7-3.6-.7-3.2-1.9-8.2-3.3-1.7-.4-2.7-1.6-4.5-2.2l-4.9-1.6c-1.4-.4-2.5-1.4-3.9-2l-3.8-1.6c-1.6-.7-2.9-1.4-4.6-2-.7-.3-2-.7-2.6-1l-3.8-2-3.2-1.6-6.9-3.5-5.9-3-6.4-3.2-9.4-5.3-4.9-2.7-6.9-4.2-7.1-4.8c-1.4,0-4.3-.3-5.5,1l-3.6,4.3-5.8,5.5c2.3,2.2,2.5,4.8,2.2,7.7-.4,3.8-2.5,6.9-5.6,8.5-3,1.4-5.5,1.6-8.5.3-2.5-1-5.2-2-6.7-4.9-.4-1-1.4-2.6-1.6-3.6-.3-2.5,0-5.3,1.2-7.4,1.9-3.5,8.1-6.5,12.6-4.6l2-2.3v-.4l-7.4,1.3-2.9.6c-.9,0-1.7.3-2.6.3l-5.8.7c-1.6.1-3.5.1-5.1.1h-15c-4.8,0-8.7.6-12-2.5-.7-.7-1.7-1.6-2-2.7-.6-1.9,2.3-4.6,3.8-5.9,6.7-6.7,7.7-5.2,11.6-8.2l2.6-2.2c2.5-2,11.7-7.8,15-9.4l.3-.9-1.9-.3c-.9-.7-1.7-1.3-2.6-2.2l-4.3-4.5c-2.5-2.6-5.6-6.5-6.5-10l-.6-2.5c-2.3-9-1.9-14.7-1.6-23.7v-3.2l.7-6.8c.4-3.8,1-7.4,2-11.1l1.7-6.7,1.6-5.9c1.3-4.8,3.6-10.4,7.7-13.6.9-.6,1.9-1,2.7-1.3,2.7-1.2,4.8-1.2,7.5-.1l3.6,1.3c.7.3,1,.4,1.6,1l3.9,3.3,7.1,6.4c.7.7,1.6,1.9,2.3,2.6l3.2,3.3c.4.6,1.4,1.4,1.7,2,.6,1.2,1.2,1.9,2.2,2.7,3.2,3,6.4,6.2,9.4,9.5,7.5,8.2,2.9,3.6,7.1,9.4,6.8,9.4,8.5,13.7,12,24.9l.6.3c.6-1,1-2.3,1.4-3l4.5-6.4,2.5-1c1.2.7,2.7,1.6,3.6,2.9,3.5,5.3,3.5,6.2,5.2,12.1.4,1.7,1.2,3.3,1.4,5.2l.9,5.6c.4,2.6.4,5.1.4,7.8h10.1c1.3,0,2.7.4,4,.3,2.9-.3,2.5,0,5.9,0s12.7.4,15.6.9l5.6.7c2.3.3,4.2,0,6.5-.3,1.6,0,3.6.3,5.3.3,5.9,0,12.7-.4,17.2,0,3.8.3,7.4.9,11.3.3,4.8-5.1,3.9-4.2,10.7-6.4l2-3h0l.3.6ZM424.6,26.5c1.2-1.4,7.2-11.6,5.3-12.4,0-.6.3-2,0-2.6-3.2-4-5.6-4-10-4.5-.7,0-1.4-.1-2,0l-4.5.3-5.6.3c-2.6.1-5.1.4-7.5.6l-6.5.6c-.7,0-1.4.1-2.2.1-3,0-5.8.6-8.8.7l-10.1.7c-2.9.1-8-.3-9.1-.3-5.5.3-11.3,5.1-15.5,8.4-1,.7-2.2,1.2-2.7,2.5,5.6-.6,11-1.2,16.6-1l15.8.4c7.4.1,14.3,0,21.7.3h8c3.9.1,9,.9,12.6,2.2,1.9.7,3.2,2.2,4.6,3.8h0ZM418.5,34.3l4.8-5.8c-1.4-2.9-4-4-7.1-4.6-7.8-1.6-10-1.2-17.6-1.3l-20.4-.3c-10.7-.1-21.3-.7-32,.4-2.7.3-3.9,1-5.9,2.7l-5.3,4.6-3.6,3-2.2,1.7c4-.3,7.8-.6,11.9-.4l25.3.3,12.6.7c3.8.1,7.4.4,11.1,1,6.8,1.2,10.4-.9,18.2,2,4.9,1.7,3.5,3.9,5.6,1.4l4.6-5.3v-.3ZM408.1,46.9l3-4c-3.5-4-11.4-4.5-16.3-4.2-3.5,0-6.8-.7-10.3-1l-8.2-.4c-3.2-.1-6.1-.4-9.3-.6l-11.6-.4-21.4.3-6.5.4c-.7,0-1.6.7-2.2,1.2l-2.3,1.9-2.3,2-3.8,3-6.5,5.2-4.6,3.9c-.7.6-1.3,1-1.7,1.7,2.3.1,4.2-.1,6.2.3l5.3,1.2c1.6.3,3.6,1.7,3.5,3.6,0,1.9-3,5.9-4.3,6.8-1,.6-1.6,2-2.5,2.7l-2.3,1.9c-1.6,1.2-2.7,2.2-4.5,3.3-4.8,3.2-2.9,3.9-6.7,4.6l-7.4,1.6-3.9.7-5.6.6-8.8,1.3-5.9.9c-.3,0-1.3.4-1.6.3-1.3-.1-3,.3-4.2.3-5.9.1-4.6.7-10.1.7s-2.3.3-3.6,1.3l-3.5,3c-3.5,2.9-6.8,4.8-9,7.2-2.6,2.9-2.9,1.4-5.8,4.6l12.4-.3h4.5c12.3.4,24.1.3,36.4,0,3.3,0,6.4.1,9.5.3l12,.6,14.3-.3c3.6,0,6.9.9,10.3,2.5,2.3,1.2,8.5,4.8,9.5,7.2,1.3-1.2,2.5-1.7,3.9-2.3,1.3-.4,2.5-1.6,3.5-2.3l5.5-3.8,4.5-3.3,4.2-3c7.2-5.3,10-7.1,16.2-14l9.8-11.1c5.5-6.1,10.4-12.3,15.8-18.5l6.4-7.5h-.1ZM397.5,69.3l2.2-7.8-3.6,3.6c.3.7.1.9,0,1.4-1.6,4.6-2.7,9.1-4.8,13.6l-2,4.6c-.4,1.2-.7,1.9-2.2,1.7-1.4,0-1-1.9-2.5-5.1-.3-.6-.4-1.2-.9-1.7l-2.7,2.7c1.4,1.2,1.2,2.2,1.4,3.5l1.3,6.9c.7.9,3.5,1.3,4.3.4,1.3-1.3,1.7-3.3,2.5-4.9l1.6-4.3c.4-1,.6-1.9.9-2.9l4.3-11.9h.1ZM389.7,77.8l2-7.2-2.2,2.5c-.1.3-3.3,4-2.7,4.8h2.9ZM388.7,81.1c0-.1-.1-.7-.3-.7l-.7.3c-.4.1-.3,1.2,0,2l1.2-1.6h-.1ZM384.5,109.6l-1.9-1.4-4-.4c-3-.3-5.6-1-8.7-1.6l-11.3-1.9c-.7,0-2.2.3-2.7.3-1,.4-2.6,1.6-3.6,2.3l-4.8,3.5c-.7.6-1.6,1.2-2.3,1.7l-2.3,1.4-3.3,1.9c-5.2,3-10.4,5.8-15.5,9.3-1.3.9-2.9,1.6-4.3,2.5-2.2,1.2-3.8,2.7-5.8,4.2-2.9,2-5.8,3.9-8.8,5.8-4.9,3-10,5.8-15.6,7.4-1.3.4-1.3,1.3-1.9,2.5l-5.3,11.7-4.2,9.7,4-.3c3.6-.3,7.2-.6,11-.3,1,0,2.3-.4,3.2-.6l3.3-.3h5.2c5.2-.3,10.1.4,15.3,1l10.7,1.3c2.3.3,4.6.3,6.9.7l4.5.7c.6,0,1.6.9,2,.9,2.2.6,3.5,2,3.9,4.2-2.2,3-3.3,2.6-4.8,5.9,0,.1-.4.7-.6.6l-.6-.3-2.3,2.3,5.6-.4h4c0-.1,4.3-.3,4.3-.3.6,0,1.9-.6,2.5-.7,5.2-.3,10.3-1.3,15.3-2.6l4.3-1.2-2.9-4c-.6-.7-.9-2.5-1.2-3.5l-.7-2.5c-1.2-4.3-.3-2.3-.9-7.5-.1-1.6-.4-3.2-.4-4.8,0-3.3,0-15.2.6-17.6.9-4.5,1.3-9,2.9-13.2,1.6-4.2,3.9-8.1,6.2-12,1.2-1.9,2.6-3.2,4.5-4.3h.3ZM377.9,220.6c4.5-5.5,6.4-13,3-19.8-3.5-6.8-3.8-7.1-11.6-10.4l-3,.3c-2.6.3-4.9.6-7.4,1.7l-3.2,6.8c-1.4,3-2.5,6.2-4,9.1l-1.6,3.2c-1.2,2.2-.1,4,1,5.8.6.9,1.2,1.7,1.9,2.3.9.7,1.6,1.6,2.5,2.3,3.2,2.6,15.2,3.8,18.8,1,1-.7,2.9-1.3,3.6-2.3h0ZM374,187.4l2.6-6.1-4.8,1.2c-.6,2.3-1.4,3.9-2.6,5.8l3.8.6h1.2c.1,0-.3-1,0-1.3h-.1ZM367.3,187.7l2.3-4.8-6.7,1.2-2.3,5.5c2.2-.4,4.5-.9,6.7-1.9h0ZM357.3,192l3.2-7.1-8.1.9c-1.9,3.3-3.5,6.5-4.8,10-.9,2.2-2,4.2-2.9,6.4l-4.8,10.8c-1.4,3.5-2.5,6.5-4.2,9.8l-3,5.6c-.3.4-.6,1-.7,1.3,0,.3.7,1,1.2,1.2l3.8.7c.9.1,1.7-1.6,2.2-2.2l2-3.9,3.3-6.2c.9-1.7,1.4-3.6,2.2-5.3.9-2.2,1.9-4,2.9-6.2l5.9-12.9,1.7-2.7h.1ZM347.9,190.1l2.3-4.3c-1.6,0-3.3,0-5.2.7l2.7,3.8h.1ZM347.1,248.8c0-2.3-1.2-6.4-2.2-8.5-.3-.7-3-3.5-4-4-1.6-1.2-3.5-2-5.2-2.7-1.9-.7-6.7-.7-9.1,0-1.3.4-3.6,0-4.8,1-1.4,1-2.7,2.2-4.2,3.2-5.6,4.3-7.1,17.2-4.2,23.4.9,1.9,3,3.2,4.6,4.3,6.4,5.1,12.6,3.8,19.8,1.3,2-.7,3.3-1.9,4.5-3.8l2.2-3.5c1.9-3,2.5-6.9,2.5-10.7h.1ZM347.2,192c-1,0-3.2-3.6-3.6-4.3-1.2-2.2-2,0-5.1-1.7l-5.8,5.3-2.5,2.3c-4.5,4.2-4.6,3.9-8.8,7.4l-3.9,3.2-2.5,1.7c-.9.6-1.6,1.3-2.3,1.9,2,2.7,5.8,12.7,6.7,14.2l3,5.1,1.7,4.3,5.3-.6c1.3-5.1,3-4.5,4.9-10.1.6-1.6,1.4-3,2.2-4.6l4.6-10.6,3.6-8.5c.7-1.6,1.9-3.5,2.2-5.1h.1ZM344.5,176.8c3.6-3.6-8.4-4.9-10.1-5.1l-4.3-.4-5.1-.7-5.6-.7c-2.2-.3-4.5-1.3-6.7-1.3h-8.8l-5.3.4-6.7.3-5.5.3c-2.2,0-4,.3-6.2.7l-3.2.4-4.5,10.3-3.6,7.7-2.9,5.9c-2.7,5.6-1.4,7.1-5.2,7.5-1.9.1-3.6.9-5.6,1.3-.7-.7-1.4-2.3-1.6-3.5l-1.3-9.1-1.2-8-1.4-9.1c-1.6-1-6.4-.4-8,1.7-2.6,3.5-3.6,4-6.8,6.7l-1.9,1.6c-1.3,1-2.5,2-3.5,3.3l-1.2,1c-3,2.5-3.8,1.7-8.2,5.8-2.2,2-4.3,3.9-7.1,5.3l-5.2,3-2,1.3-5.6,3.6-6.7,3.9-8.2,5.1-8.1,4.6c-1.3.9-6.5,4.5-7.5,5.8,0,3.2-1.9,3.8-1.6,6.5,6.5,6.2,18.1,6.4,26.5,7.5l5.5.7h4c3.2.3,11.6,1.4,16.3,1.4h21.8c.9,0,2.3-.4,3.2-.4,2.9-.1,5.5-.6,8.2-1.4l3.3-1,5.2-1.7c6.2-2,8.8-4.6,14.6-7.4l1-.9c-1.7,1.7,19.5-13.4,22.3-15.6l6.5-5.1c1.9-1.4,3.5-2.7,5.3-4,1.2-.7,2.2-2,3.3-2.7l4.9-3.6,6.2-4.9,2.2-2.2c1.7-1.7,3.8-2.9,5.3-4.6l1.6-1.7,9-8.7h0ZM333.8,115.4c1.2-.7,2-1.2,3.2-2-4.8-4.6-11.3-8.4-17.9-8.2h-15.5c-11.9.4-23.3-.3-35-.4l-18.5-.3h-21.3c-1.2,0-2.2.7-3.2,1.2-2.2,1-3.6,2.2-5.5,3.5-2,1.4-4.5,2.3-6.5,3.9-1.2.9-2.6,1.4-3.8,2.2l-5.5,3.5c-1.2.7-2.5.7-3.5,1.9l10.6-.3h15.2l17.1.4h12.9c0,.1,10.1.4,10.1.4h12.1l11.6.3c9.5.1,11.3,1.2,18.8,7.5.3.3.7.9,1,1.4,0,.3.3.4.3.7-1.3.7-2.2,1.3-3.5,1.7l1.9-1.2c-1.3-2.9-8.8-8-12.4-8.1l-14.9-.6h-11.4l-14.9-.3-35.6-.7h-11.7c-3.3.1-6.5,0-10,0l-7.1,4.2c-2,1.2-4.2,2-5.9,3.3l-2.3,1.7-3.3,2.5c-1,.7-1,3.5-.4,4.3.6,0,1.2,1,1.6,1.3,1.6.9,3.5,1.7,5.1,2.5,5.1,2.2,17.9,3.9,23.7,4.6,4.5.6,8.7,1.6,13.3,1.6s5.3.3,8.1.3h16.3c2.2,0,4.2.1,6.4,0,3.2-.1,6.2,0,9.4-.6,2.2-.6,4.5-.1,6.7-.6,3.8-.6,14.7-3.2,17.8-4.6l6.7-3,.7,1.3,2.3-1.7h-1c0-.1.4-.6.4-.6.3-.3,1.2-.9,1.4-.6l.9.9c.1-.9.4-1.4,1.2-1.9,1.3-.7,2.9.6,2.9-.6v-1l.9-.4.4.4c.3-.6,1-1.3,1.6-1.6v1.2l5.3-3.5-.6-.9,5.8-3.6-.4,1.4,2.7-1.9-2.3.7c1.4-1.3,2.7-2.3,4.3-3.3l6.1-3.9,7.2-4.5h0ZM322.3,231.9c-1-3.9-3.2-5.5-4.9-10l-1.7-4.5c-.9-2.3-1.9-4.8-3.6-6.7-.3-.4-1.4-.9-2-1.3l-3.5,3.2,2.5,5.9,1.9,4.5c.6,1.4,1.3,2.7,1.9,4.2l2.3,4.9c.4.9,1,1.7,1.6,2.7l2.5-1.4c1-.6,1.9-1,3-1.6h.1ZM285.8,145.6l-6.7,2.2-5.3,11.7-6.4,13.9-4.9,9.7-1.7,3.3c-1.9-.7-2.3-2.6-2.6-4.5l-1.6-9.7c-.4-2.3-.7-4.5-1.2-6.8l-1.4-7.7-.9-5.2c-.1-.9-.7-1.9-1.7-1.7l-3.8.4c.3,1.6.6,2.9.7,4.3.9,8.1,2,9.5,3,16.3l1.2,7.8,2.2,11.9c.4,2.6.9,5.1,1.6,7.5l.3,1.4c0,.3,1,.3,1.3.3l2.9-.6,1.7-2.9c.7-1.2.9-3.2,1.6-4.2.6-.9,1-1.4,1.4-2.3l3.2-6.5,4.3-9.7,1.7-4,1.3-2.7,3.2-7.4,2.9-6.1c1.4-2.9,2.6-5.6,3.8-8.8h-.1ZM281,63.3c-2.6,0-4.9-1.2-5.5-3.9-.1-.7.6-2,1-2.7l-2.9-1c-1.4-.4-7.7-2.3-8.2-1l-.7,1.6-1.6,3-3,3.9c-1.6,2-3.2,2.7-5.2,3.6-2.6,1.2-4.6,1.9-7.7,1.3-3-.6-5.8-1.3-8.1-3.3-3.8-3-6.4-5.6-7.4-10.8-2.2.9-7.5.9-9.3.4l-6.2-1.3c-1.7-.4-3.2-.7-4.8-1.3l-1.2-.4c-.4-.1-1.3-.6-1.6-.4-.4,0-.9.9-1.2,1.2l-5.5,1.3c2.3,2.6,5.8,2,8.1,1.2.6-.1,1.7.9,1.7,1.3s-.7,1.3-1.3,1.6l-3.9,1.4c-1.4.6-2.9.6-4.2,1.9,4.8,2.3,10.8,2,15.8,2-.4,2.2-1.6,3.9-3.6,5.3,6.8.7,2.3,1,7.7.6l10.4-1c.9,0,2.6-.3,4.2-.3s2.3,0,2.7.4c2.3,2.2-4.6,5.5-2.5,6.1,1.9.4,3.5,0,5.2-.3,2.5-.4,5.2-.6,7.7-1.3l2.6-.9c.7-.3,2-.4,2.3.4-1,1.2-2.5,1.7-3.9,2.6-.6,1,4.2,1.4,4.5,1.4h5.9c4-.3,5.3-.4,9-2.2,5.3-2.6,4.2-3.5,5.3-4.2,2.3-1.6,4.3-3.6,5.3-6.1h-.1ZM269.9,163l6.7-14.2c-1.7-.7-3,.9-4.5.9l-17.3,1,2.2,12.6,1,5.2c0,.7.4,1.9.9,2.2l7.7-.7c1.6-2,2.3-4.6,3.3-6.9h.1ZM274.3,51.2c2.2-4.2,2.5-2.6,2-7.7,0-2.3-.3-4.3-1.4-6.2-.4-.7-.9-1.9-1.4-2.3-1.9-1.4-4.8-3-7.1-2.5-2.3.6-3.2,3.3-4.6,4.9l-2,2.2c-1.6,1.6-3.9.4-5.8.3l-5.9-.4c-4.5-.3-10.8,2.5-12.9,6.9-1.7,4-2.7,5.6-.4,10,2.2,4,4,5.2,7.8,7.8,1.9,1.3,4.3,1,6.4,1.4,1.3.3,2.5.4,3.6-.1,4-1.9,6.9-5.3,9-9.3,1.4-2.7,1.9-4.5,5.1-4.6,2.3,1.4,5.6,1.6,7.7-.6h.1ZM270.1,82.3c.3,0,1.3-.4,1.2-.9l-.4-1.2c-.3-1-1.3-3-2.5-3-2.6.3-4.9.6-7.4.6h-3.5c-1.2,0-2.9.3-3.9,0-3.8-1-5.5-.3-6.1-1.3l-1-1.9-5.8,1.2c-1.9.4-3.8.7-5.6.1-.9-.3-1.7-1.6-1.4-2.2.6-.9,1.2-1.6,1.6-2.3l1.3-2.2h-4.5c-1.4.1-2.9.3-4.3.4l-8.4,1.2c-1.3.1-2.7-1-4.2,0l3.2,2.2,2.3,1.7,5.5,2.7,6.9,3.5c3,1.6,4,2.6,7.5,3.8l4.2,1.3c1.7.6,3.2-1.2,4-2.3h4.2c0-.1,3.2-.3,3.2-.3h2.3c0-.1,2.9-.6,2.9-.6l8.7-.7h0ZM263.1,177.3l2.6-5.2-6.7.9c.9,3.5.4,4.8.9,6.7l.9,3.2,2.3-5.3h0ZM249.2,171.3l-1.6-9-1.9-11.4c-6.8-.6-12.3.4-18.5-.1-2.2-.1-4.3,0-6.7,0s-5.6-.6-8.4-1l-12.1-1.6c-3-.4-5.9-1.2-8.8-1.7-4.9-1-2.6-.9-7.8-2.7l-2.6-1c-2.5-.9-3.8-2.9-4.2-5.6,0-1.9,1-4.5,1.3-6.2,1.9-.9,3.8-2,5.2-3,.4-.3,1.6-.4,1.9-.7,1.9-1.9,4.2-2.7,6.2-4l5.6-3.8-2-3c-1.4-2.2-1.4-4.9-2-7.4-1-4.5-.4-8.7,2-12.9h-1.6c-.7.3-2.3-.4-3-.4-4.3,0-10.7-.9-13,0-2.9,1-4.8,3.2-5.8,5.8-1.9,4.8-2,3.5-3.3,8l-1.4,5.2c-.4,1.4-.3,3.2-.4,4.8l-.3,3.3c-.3,3.5-.7,6.5-.9,10v6.9c-.3,2.2-.4,4.3-.3,6.5l.4,7.2.3,3.8c0,1.7.6,3.6,1,5.3,1.4.9,3.5.9,5.2,1.3l4.3,1.6,3.8,1.4,6.7,2.5c1.3.4,2.6.7,3.9,1.3,3.8,1.6,11.4,4,15.6,4.6,4.9,2,7.8,1.9,12.4,3.3,1.2.4,2.3.4,3.6.7,1,0,2.3.9,3.5.7,2.7-.1,5.2.1,7.8.9,2.5-1.3,4.2-3.5,5.8-5.6,2-2.9,6.5-4.6,10.3-3.8h-.1ZM235,94.9c2.7-1.9,5.3-3.8,7.8-6.1-8.1-3.5-10.4-6.5-19.4-10.3-2-.9-3.9-2.2-5.8-3.2l-2-1.2c-2,1.9-4,3.8-5.3,6.1,1.3.6,1.4-1.4,3.3-1,.3,0,.6,1.2.4,1.4l-3.5,5.3-5.2,7.5,2.3.7c-.9,2.6-4.8,6.9-4.2,10.1.3,1.3,2.2,9.7,3.2,9.4l5.1-2.6h0l4.3-2.9c2-1.3,9.3-5.5,11.4-7.2l5.8-4.6c.6-.4,1.2-1.2,1.7-1.6h0ZM231.3,51.8c.1-.4.3-2,.3-2.7l-6.4.4c-3.6.3-5.2,0-8.8-1l-4.5-1.3c-.7-.1-1.9-1-2.7-1.3l-.7-.3c-.7-.3.6,2,1.3,2.6s2.2,1.6,3,1.7l7.4,1.6c2.3.6,4.8,1,7.2.7l3.9-.4h0ZM212,67.2l3.3-2.3c-.7-.3-1.7-.6-2.3-.6h-6.1c0-.1-1.2,2-1.2,2,.6,2.3,2.9,3.3,4.9,2.7,0-.6,0-1,.3-1.2.1,0,.9-.4,1-.6h0ZM199.6,60.7c-1.3-1.2,5.6-3.3,5.1-3.6-1.7-1-15.5-1.9-14-1.6l-3.3-.6c-2-.4-3.6.3-5.8.9,1.3,1.6,2.6,1.9,3.9,2.9.7.6,1.6,1.3,2.3,1.9,3.9,2.3,8,3.8,12.4,4.3,1.6.1,3,.6,4.2-.6-1.7-1.2-3.3-2-4.9-3.5h.1ZM199.4,118.1l4.8-2.5c-.7-3.6-3.2-7.7-2.9-10.1l.4-4.6c0-1.7,1.4-3.5,2.2-5.1-.4-.4-1.2-.9-1.2-1.3.1-1.7,1.4-2.5.9-2.9-1.6-1.3-7.8,5.5-8.5,11.3-.6,5.6.6,10.8,4.3,15h0ZM200.2,51.5l-2-1.3c-1.3-.9-2.6-2.2-4-2.6l-4.5-1.3c-1.2-.3-2-.7-3.3-.3,2,3.6,4.2,3.6,6.5,7.4l5.3.6c.4-.9.7-1.6,1.9-2.5h.1ZM170.7,97.9c.3-.7,1.4-1.3,1.3-2.2-1.4,0-2.7-.3-4-.3h-9.8l-9-1-5.2-.3c-2.2,0-4.2-.3-6.2,0l-1.6,1.6c-1.6,1.4-3.3,2.3-4.2,4.9l-2.5,6.2c-.4,1-.7,2.6-1,3.8l-.4,2.3c-.3,1.4-.4,3-.4,4.5v12.9c0,3,0,6.1.3,9.3l.4,3.5c.3,2,.6,3.9,2.6,4.8l8,3.5c1.3.6,2.3,1.2,3.6,1.9.9.6,2.5.6,3.5,1l6.5,2.9c1.6.7,3,1,4.6,1.7,1.7.9,3.8,1.4,5.9,2,.3-2.6.4-6.7.3-9.1l-.3-3.9v-9c0-2.3,0-4.5.1-6.8l.6-7.2.3-3,.7-7.7c.3-2.9,1.3-6.1,2.5-8.8l1.2-2.5c.9-1.7,1.4-3.5,2.2-5.1h.1ZM131.9,96.6l2.3-2.6-7.4-.3c-2.5,0-4.8-.3-7.4-.1h-6.5c-2.5,0-4.8-.3-7.2,0l2.9,1.4c2.2,1.2,5.2,1.9,4.6,5.1-.9,1.3-5.3,4.8-6.4,5.2l-11.7,4.9c-1.2.4-2.2,1-3.3,1.6l-10,3.8c-1.3.6-6.5,1-7.8,2l10.4,6.7,13.6,7.5,2.9,1.6c2.2,1.2,4.5,2.2,6.7,3.3,6.8,3.2,11.9,6.4,18.8,9.4-1.3-4.3-1.2-9.8-1.2-14.7s-.4-3-.1-8.5c.3-6.2.6-12.4,2.9-18.4l1.2-2.7c.7-1.6,1.6-3.6,2.7-4.9h0ZM106.6,91.1h5.5c-.3-1.4,0-2.2,0-3.3.1-3.6-.3-6.5-1.2-10l-.9-3.6c-.9-3.9-2-7.7-4.3-11-.7-1-2-2.9-3.5-2.2-1.9,1-3.3,3.2-4.3,5.2-3.2,6.4-2.9,4.9-1.9,11.7.3,1.9.6,3.5.7,5.2,0,3.6.7,4.5.4,7.1,4.6-.3,6.9.9,9.3.9h.1ZM111.4,99.3l-2.3-2c-10-3.5-10.8-4.6-21.4-5.6l-5.9-.6-4.6-.3h-17.3c-5.5,0-11.1,0-16.6,1.2-2,.4-4,1.3-6.2,2-3,1-14.6,8.4-17.5,10.7-3.5,2.7-5.2,4.2-9.1,6.2-1.2.7-2.3,1.2-2.9,2.5-2.3,1.4-4,3.6-5.2,5.9l2.6,2.5,3,.7c1.7.4,3.5.3,5.2.3h3.9c0,.1,12.6.4,12.6.4,3.8,0,7.4-.4,11-1.2l4.6-.9,2.5-.6,4.8-1.2c4.9-1.2,9.7-2,14.7-2.9,2.7-.4,5.3-1,7.8-1.7l13.9-4c3.3-1,8.4-4.2,14.2-6.2,1.6-.6,3.2-1.9,4.6-2.7,1.4-.7,2.5-1.4,3.6-2.5h.1ZM95.4,90.7l-.4-7.2c-.3-4.2-1.2-10.7-2.5-14.7l-1-3c-2-6.5-4.5-12.6-8.4-18.1l-4.9-6.8c-.7-1-1.3-2.2-2.2-3l-5.2-5.8-4.2-4.3-4.2-4.5-3.9-4.3-2.9-3-1.9-1.9c-.6-.6-1.2-1.3-1.9-1.9l-3.8-3.2c-.6-.4-1.7-1-2.2-1.6-2-2.5-4.6-3.6-7.7-4.2-1.2-.3-2.2-.3-3.5,0-1.6.4-4,.7-5.2,1.9-3.9,4.3-5.5,9.5-6.9,15-2.3,8.7-4.8,17.2-5.1,26.3l-.3,7.8c0,3.2-.4,6.2.1,9.3l1.2,5.9c.7,4,.9,7.5,4.2,11.6l3.2,3.6c.6.7,1.2,1.4,1.9,2l2.9,2.3c1.9,1.4,4.3,2.9,6.5,3.2l2.9-.9c1.2-1.2,2.3-1.2,3.9-1.3l6.1-.9c1-.1,2.3.1,3.3,0h8.2l3.5-.3h5.3l12.3.7,7.5.4c1.7,0,3.3.6,4.9.9h.1ZM57.6,126.2c2.5-1.9,4.6-3.9,6.4-6.9-2.6.4-5.3,1-7.8,1.9l-3.2,3.9,1.9,1.4c.3.3,1.3.7,1.6.6,0,0,1.2-.9,1.2-.9ZM56.2,140.7c2-3,2.7-6.8.6-9.8-1-1.4-2.6-3-4.2-4-2.9-1.9-7.5-1.6-10.3.7-2.6,2-3.9,5.6-3.3,8.8.3,1.4,2.2,4.5,3.8,5.3,1.4.9,3,2,4.8,2.5,3.2,1,7.1-1.2,8.7-3.5h0Z"/>
  <path class="st4" d="M432.8,88.6c-.1.7-.4,1.3-.7,2-.7-.6-1.3-1.3-2-1.9v-2c1,.6,1.9,1.2,2.6,1.9h.1Z"/>
  <path class="st4" d="M430,88.8c.7.6,1.3,1.2,2,1.9-.4,1.2-1.2,2.3-1.9,3.3-.6-.4-1.2-1-1.7-1.3.9-1.2,1.3-2.5,1.6-3.8h0Z"/>
  <path class="st4" d="M430.2,86.6v2c-1.2-1-2.3-1.9-3.5-2.6-.3-.1-.4-.7-.4-1s.9-.3,1,0c1,.6,1.9,1,2.7,1.6h.1Z"/>
  <path class="st2" d="M429.9,14c1.9.9-4.2,11-5.3,12.4-1.4-1.6-2.7-3-4.6-3.8-3.6-1.4-8.7-2-12.6-2.2h-8c-7.4-.1-14.3,0-21.7-.3l-15.8-.4c-5.6,0-11,.4-16.6,1,.7-1.3,1.9-1.7,2.7-2.5,4.2-3.3,10-8.1,15.5-8.4,1.2,0,6.1.4,9.1.3l10.1-.7c2.9-.1,5.8-.7,8.8-.7s1.4,0,2.2-.1l6.5-.6c2.6-.3,4.9-.4,7.5-.6l5.6-.3,4.5-.3h2c4.5.4,6.8.4,10,4.5.4.6,0,2,0,2.6h0Z"/>
  <path class="st2" d="M429.8,84.9c.1.6.3,1.2.4,1.7-.9-.6-1.9-1.2-2.7-1.6h-1c0,.1,0,.7.4,1,1.2.7,2.3,1.6,3.5,2.6-.1,1.3-.7,2.6-1.6,3.8-.3-.1-.6-.3-.9-.4-.9-.4-2.2.4-1.9,1.2.4.3,1,.4,1.4.7l-4.5,4.5-.4.3c-.3,0-.6-.3-.9-.4-1.4-.6-3.5-1-4.6.4-.9,1.2,0,2.9.9,3.9h0c-3,2.9-10,9.1-11.9,8.4l-5.6-1.6-14.2-2.3-12.6-2.3c-1.6-.3-3.2-1-4.6-1-3.5-.3-6.5-.7-10-1.7.9-1,1.4-1.3,2.3-2,3.8-2.9,7.7-5.6,11.1-8.8,2.5-2.2,4.2-4.6,6.9-6.8.6,1.4.7,2.9,1,4.3l.7,4.6c.1,1,.4,1.9,1.2,2.5.9.6,1.9.4,3,.4l4-.3c1.3,0,2.2-1.7,2.2-2.9l2-6.4,1.4-3,1.2-4.2h4.9c3.5,0,6.2-.7,9.7.3,3.9-1,7.7,0,11.4,1.3,1.4.6,7.1,2.5,7.5,3.8h0Z"/>
  <path class="st4" d="M430.2,93.8c-.4.6-.9,1-1.2,1.6-.6-.6-1.2-1-1.9-1.4l.4-.4c.3-.3.6-.6.9-1,.6.4,1.2.9,1.7,1.3h0Z"/>
  <path class="st4" d="M429,95.4c-.3.3-.4.6-.7.7l-3.8,3.8c-.7-.4-1.4-.9-2.2-1.2l.4-.3,4.5-4.5c.7.4,1.3.9,1.9,1.4h-.1Z"/>
  <path class="st4" d="M427.7,92.1c.3,0,.6.3.9.4-.3.3-.6.7-.9,1l-.4.4c-.4-.3-.9-.6-1.4-.7-.3-.7,1.2-1.6,1.9-1.2h0Z"/>
  <path class="st4" d="M424.6,99.9l-1.7,1.7c-.7-.4-1.6-1-2.5-1l2-1.9c.7.3,1.4.7,2.2,1.2h0Z"/>
  <path class="st4" d="M423.7,142.7c1.9,2,1.2,6.4.3,8.5-1,2.6-3.9,4.6-6.7,4.9-2.3.3-4.5-1-6.7-1.7v.9c-.6-.4-1.3-.7-2-1-.1,0-.4,0-.6-.1,0-1.2.1-2.5.3-3.8.1-3.9,1-13.9,5.8-14.5,2-.3,3.6,1.7,4.2,3.5.7.3,1.7.6,2.5.6l-.6-6.7c0-.6-.1-1-.3-1.6h.6c.6,1.2,1.3,2,2.2,2.9l.4,4.9v1.7l.9.7c.1,0,0,.4-.1.9h-.1ZM417.8,153.7c2.7-.6,4.6-5.1,4.6-7.2s-2.6-4-4.5-3.9c-2.2,0-4.2.7-5.8,2-.3,1.4-.6,3.2-.7,4.6-.3,2.7,4.2,5.1,6.5,4.6h-.1ZM412.8,141.1l3.2-1.3c0-.7-.9-1.7-1.4-1.9-1.2.6-2,1.9-1.7,3.2Z"/>
  <path class="st1" d="M423.1,28.5l-4.8,5.8-4.6,5.3c-2.2,2.5-.7.4-5.6-1.4-7.8-2.7-11.4-.9-18.2-2-3.8-.6-7.4-.7-11.1-1l-12.6-.7-25.3-.3c-4,0-7.8.3-11.9.4l2.2-1.7,3.6-3,5.3-4.6c2-1.7,3.2-2.5,5.9-2.7,10.7-1.2,21.3-.6,32-.4l20.4.3c7.7,0,9.8-.3,17.6,1.3,2.9.6,5.5,1.7,7.1,4.6v.3Z"/>
  <path class="st4" d="M422.8,101.7l-1.6,1.6-1.6-1.9.9-.7c.9,0,1.6.6,2.5,1h-.1Z"/>
  <path class="st4" d="M422.4,132.5v2.2c-.7-.9-1.4-1.7-2-3v-.3c.7.3,1.4.7,2.2,1.2h-.1Z"/>
  <path class="st5" d="M422.4,146.5c0,2.2-1.9,6.7-4.6,7.2-2.3.4-6.8-1.7-6.5-4.6s.4-3,.7-4.6c1.6-1.3,3.6-2,5.8-2s4.5,1.7,4.5,3.9h.1Z"/>
  <path class="st4" d="M422.4,98.8l-2,1.9c-.4,0-.9,0-1.3.1l.4.6-.6.6c-.3.1-.6.6-1,1h0c-.9-1.2-1.7-2.9-.9-4.2,1.2-1.3,3-.9,4.6-.4.3,0,.6.3.9.4h-.1Z"/>
  <path class="st4" d="M421.2,103.2l-1.2,1.2c-.1.1-.3.3-.4.4l-1.7-2c.4-.4.9-.7,1-1l.6-.6,1.6,1.9h.1Z"/>
  <path class="st7" d="M420.2,133.2l.6,6.7c-.7,0-1.7-.3-2.5-.6-.6-1.7-2.2-3.8-4.2-3.5-4.8.7-5.5,10.6-5.8,14.5,0,1.3-.1,2.5-.3,3.8-1.2-.1-2.6.6-2.7,1.7-.1,1.9.9,3.5,1.9,4.9l.6.9v3c-.4.4-.7.9-1.2,1.3-3.6-2.6-12.1-8.7-14.6-6.1-1.4,1.6,2.3,6.7,3.6,8.2l1.9,2.3.4.6c-1.3.6-2.6,1-4,1.4-.9.3-1.7.6-2.5.9-1.7-2.5-3.5-5.5-4.6-7.8-.6-1-.7-1.9-2.2-2h-1.3c-.3,0-.6.6-.7.9-1.2,3.2-.6,8.1.7,12.3-.4.1-.9.3-1.4.4-.9.3-2.2-.6-2.6.6-5.2-2.5-5.8-10.1-6.4-15-1-7.7-.9-18.2.3-25.9.1-1.2.6-2.2.9-3.5l2-7.1c1.2-4.3,3-8.1,5.9-11.6,1-1.2,1.9-2.2,3.3-2.9s2.9-1.7,4.6-1.4c4.9.9,5.1.6,10,1.7,5.5,1.3,10.4,3.6,13.9,8.2,1.6,2.2,3,4.2,4,6.8.6,1.4,1.6,3,2,4.5.1.6.3,1,.3,1.6h0Z"/>
  <path class="st4" d="M417,189.1c.3.7,1,2.2.4,2.9-2,2.7-8-1.2-10.6-2.6-4.2-2.2-12.4-8.2-15.5-11.9-.3-.4-.7-.7-1-1.2l2.7-1c.3.3.6.7.9,1,5.8,5.9,12.6,10.4,20.1,13.7-1.2-3.2-3.5-4.5-5.1-6.8l-2.7-3-3.3-3.6-3.3-3.9c1-.3,1.9-.6,2.7-1l7.2,8.1,4.3,4.8c1.3,1.4,2.3,2.7,3,4.6h0Z"/>
  <path class="st4" d="M417.5,161.2c0,.6-1.7,1.2-2.2.7-2.5-2.2-2.7-2.7-4.5-3.5v-3.3c1.2.7,2.3,1.4,3.5,2.3,1.3.9,2.9,1.9,3.2,3.6h0Z"/>
  <path class="st4" d="M416,170.3c.3.9.4,2,0,2.6s-1.7,1.2-2.5.9c-2-1.2-3.6-2.3-5.3-3.6-.3-.3-.7-.6-1.2-.9.3-.1.4-.3.7-.4.6-.4,1-.9,1.4-1.3l1.7,1.3c.7.4,1,1,2,1.2-.6-1.4-1.2-2.5-2-3.8l-.6-.9c.4-1.3.7-2.6.6-4.2v-.6c.4.1.9.4,1.3,1.4.9,1.9,1.9,3.3,2.6,5.3l1,2.7h.1Z"/>
  <path class="st4" d="M417.6,204.5c-3.5,3.9-13-3.5-16-5.8-6.1-4.8-11.4-10.1-15.6-16.6-.6-.9-1.2-2-1.6-3.2l2.6-1c.3.7.6,1.4,1,2.2,1.6,2.6,3.3,5.2,5.5,7.4,4.5,4.6,9,9,14.3,12.4,5.6,3.6,5.6,1.9,9.8,4.8h0Z"/>
  <path class="st2" d="M411.3,42.8l-3,4-6.4,7.5c-5.3,6.2-10.4,12.4-15.8,18.5l-9.8,11.1c-6.2,6.9-9,8.7-16.2,14l-4.2,3-4.5,3.3-5.5,3.8c-1.2.7-2.3,1.9-3.5,2.3-1.4.6-2.6,1.2-3.9,2.3-1-2.5-7.2-6.1-9.5-7.2-3.3-1.6-6.7-2.5-10.3-2.5l-14.3.3-12-.6c-3.2,0-6.2-.3-9.5-.3-12.1.1-24.1.3-36.4,0h-4.5l-12.4.3c2.9-3.2,3.2-1.7,5.8-4.6,2.2-2.5,5.6-4.2,9-7.2l3.5-3c1.2-1,1.9-1.3,3.6-1.3,5.5,0,4.3-.6,10.1-.7,1.3,0,2.9-.4,4.2-.3.4,0,1.3-.3,1.6-.3l5.9-.9,8.8-1.3,5.6-.6,3.9-.7,7.4-1.6c3.8-.7,1.9-1.6,6.7-4.6,1.6-1.2,2.9-2,4.5-3.3l2.3-1.9c.9-.7,1.4-2.2,2.5-2.7,1.4-.9,4.3-4.9,4.3-6.8s-1.9-3.3-3.5-3.6l-5.3-1.2c-2-.4-3.9,0-6.2-.3.4-.7,1-1.2,1.7-1.7l4.6-3.9,6.5-5.2,3.8-3,2.3-2,2.3-1.9c.6-.4,1.4-1.2,2.2-1.2l6.5-.4,21.4-.3,11.6.4c3.2,0,6.2.4,9.3.6l8.2.4c3.5.1,6.8,1.2,10.3,1,4.9-.1,12.9.3,16.3,4.2h.1Z"/>
  <path class="st4" d="M411,161.2c0,1.6,0,2.9-.6,4.2l-2.5-3.9c0-2.6,0-5.1.3-7.7.1,0,.4,0,.6.1.7.3,1.4.7,2,1v3.3c-.4-.1-1.2-.4-2-.7.9,2.6,1.4,2.7,2.2,2.9v.6h0Z"/>
  <path class="st4" d="M410.8,158.5v2.3c-.6-.3-1.3-.3-2.2-2.9.9.3,1.6.4,2.2.7h0Z"/>
  <path class="st4" d="M407.8,161.5l2.5,3.9c-.3.7-.7,1.4-1.3,2.2l-1.2-.9c-.3-.1-.6-.4-1-.7.3-.4.7-.9,1.2-1.3v-3h-.1Z"/>
  <path class="st4" d="M407.8,166.7l1.2.9c-.4.4-.9.9-1.4,1.3-.3.1-.4.3-.7.4-.7-.4-1.4-1-2.2-1.6.7-.4,1.3-1,1.9-1.7.4.3.7.6,1,.7h.3Z"/>
  <path class="st4" d="M405.3,155.7c0-1.2,1.4-2,2.7-1.7-.1,2.6-.3,5.1-.3,7.7l-.6-.9c-1-1.4-2-3-1.9-4.9h0Z"/>
  <path class="st4" d="M406.3,208.9c-3.6,1.4-14.6-7.5-17.1-10-2.6-2.6-7.7-9.4-7.4-13.4h1.6c.3,0,.6.9.7,1.3,1,3,2.9,5.5,4.9,8,4.2,4.9,9.7,8.1,15,11.6.9.6,1.4,1,2.2,2.5h0Z"/>
  <path class="st4" d="M404.7,167.7c.7.6,1.4,1.2,2.2,1.6-1.4,1-2.9,1.7-4.5,2.5l-1.7-1.9c1.7-.7,2.9-1.3,4-2.2h0Z"/>
  <path class="st4" d="M406.8,165.8c-.7.7-1.3,1.3-1.9,1.7-3-2.3-6.9-4.8-9.7-5.6.6,1.6,1.4,2.6,2.3,3.8l2.5,3,.9.9h-.3c-.7.3-1.6.6-2.3.9l-.4-.6-1.9-2.3c-1.3-1.4-5.1-6.7-3.6-8.2,2.5-2.6,11,3.5,14.6,6.1h0v.4Z"/>
  <path class="st7" d="M404.7,167.7c-1.2.9-2.3,1.4-4,2.2l-.9-.9-2.5-3c-1-1.2-1.7-2.2-2.3-3.8,2.7.7,6.5,3.3,9.7,5.6h0Z"/>
  <path class="st4" d="M400.8,169.9l1.7,1.9c-.9.4-1.7.7-2.7,1l-1.6-1.9c.7-.3,1.6-.6,2.3-.9h.3,0Z"/>
  <path class="st4" d="M399.8,172.8c-.1,0-.4.1-.7.3-2,.6-3.9,1.6-5.9,2.3h0c-.6-.6-1-1.3-1.6-2,.9-.3,1.6-.6,2.5-.9,1.4-.4,2.7-.9,4-1.4l1.6,1.9h.1Z"/>
  <path class="st0" d="M399.7,61.5l-2.2,7.8-4.3,11.9c-.4,1-.6,2-.9,2.9l-1.6,4.3c-.6,1.6-1.2,3.6-2.5,4.9-.9.9-3.5.6-4.3-.4l-1.3-6.9c-.3-1.3,0-2.3-1.4-3.5l2.7-2.7c.4.7.6,1.3.9,1.7,1.4,3.2,1,4.9,2.5,5.1,1.3,0,1.7-.7,2.2-1.7l2-4.6c2-4.5,3.2-9,4.8-13.6.1-.6.3-.7,0-1.4l3.6-3.6h-.1Z"/>
  <path class="st4" d="M393.2,175.4l-2.7,1c-.6-.7-1-1.3-1.4-2,.9-.4,1.7-.7,2.6-1.2.6.7,1.2,1.4,1.6,2.2Z"/>
  <path class="st4" d="M387,165.4c1.2,2.3,2.7,5.3,4.6,7.8-.9.3-1.7.7-2.6,1.2-1.3-1.9-2.5-3.8-3.6-5.8,0,2.3.3,4.8.9,6.9-.9.3-1.7.6-2.6,1-1.3-4.2-1.9-9-.7-12.3,0-.3.4-.9.7-.9h1.3c1.4.1,1.6,1,2.2,2h-.1Z"/>
  <path class="st7" d="M390.4,176.4l-3.5,1.4c-.3-.7-.6-1.4-.7-2.3,1-.4,1.9-.9,2.7-1.2.4.7,1,1.3,1.4,2h0Z"/>
  <path class="st7" d="M389,174.4c-.9.4-1.7.7-2.7,1.2-.6-2.3-.9-4.8-.9-6.9,1.2,2,2.3,4,3.6,5.8Z"/>
  <path class="st4" d="M387,177.8l-2.6,1c-.3-.7-.6-1.4-.9-2.3,1-.3,1.9-.7,2.6-1,.1.7.4,1.6.7,2.3h.1Z"/>
  <path class="st2" d="M382.6,108.2l1.9,1.4c-2,1.2-3.5,2.5-4.5,4.3-2.3,3.9-4.5,7.7-6.2,12-1.6,4.2-2,8.7-2.9,13.2-.4,2.5-.7,14.3-.6,17.6,0,1.6.3,3.2.4,4.8.6,5.2-.3,3.2.9,7.5l.7,2.5c.3,1,.6,2.7,1.2,3.5l2.9,4-4.3,1.2c-5.1,1.3-10.1,2.5-15.3,2.6-.6.1-1.9.7-2.5.7h-4.3l-4,.3-5.6.4,2.3-2.3.6.3c.1,0,.6-.4.6-.6,1.6-3.5,2.6-2.9,4.8-5.9-.4-2.2-1.7-3.6-3.9-4.2-.6,0-1.6-.9-2-.9l-4.5-.7c-2.3-.4-4.6-.4-6.9-.7l-10.7-1.3c-5.2-.6-10.1-1.3-15.3-1.2h-5.2l-3.3.4c-.9,0-2.2.6-3.2.6-3.8-.1-7.4,0-11,.3l-4,.3,4.2-9.7,5.3-11.7c.4-1,.6-2,1.9-2.5,5.6-1.6,10.6-4.3,15.6-7.4,3-1.9,5.9-3.6,8.8-5.8,2-1.4,3.6-3,5.8-4.2,1.4-.9,3-1.6,4.3-2.5,5.1-3.3,10.3-6.2,15.5-9.3l3.3-1.9,2.3-1.4c.9-.6,1.6-1.2,2.3-1.7l4.8-3.5c1-.7,2.6-1.9,3.6-2.3.6,0,2-.4,2.7-.3l11.3,1.9c3,.6,5.6,1.2,8.7,1.6l4,.4h-.3Z"/>
  <path class="st5" d="M381,200.8c3.3,6.8,1.4,14.2-3,19.8-.7.9-2.6,1.6-3.6,2.3-3.6,2.7-15.6,1.4-18.8-1-.9-.6-1.6-1.4-2.5-2.3-.7-.7-1.3-1.6-1.9-2.3-1.3-1.7-2.2-3.6-1-5.8l1.6-3.2c1.6-2.9,2.6-6.1,4-9.1l3.2-6.8c2.5-1.2,4.6-1.4,7.4-1.7l3-.3c8,3.3,8.2,3.6,11.6,10.4h0ZM372.9,209.8c.9-2.3,0-5.5-1.6-7.2l-1.9-1.9c-1.4-1.4-2.7-2.6-4.8-3-1.6-.3-3.2,0-4.2,1.3-2.2.4-3.5,1.9-4.8,3.5-.9,1-1.4,1.9-1.4,3.2-1.2,1.9-1,3.9-.7,5.9.3,1.9.6,3.3,2.2,4.5,3.3,2.5,4,3.6,10.1,1.7,1.6-.4,3.9-1.9,4.8-3.2,1-1.6,1.7-3.2,2.3-4.9h0Z"/>
  <path class="st0" d="M376.7,181.3l-2.6,6.1c0,.3.3,1.3,0,1.3h-1.2l-3.8-.6c1.2-1.9,2-3.5,2.6-5.8l4.8-1.2h.1Z"/>
  <path class="st4" d="M371.3,202.6c1.6,1.7,2.5,4.9,1.6,7.2-.6,1.7-1.3,3.3-2.3,4.9-.9,1.4-3.2,2.7-4.8,3.2-6.1,1.9-6.8.6-10.1-1.7-1.6-1.2-1.9-2.6-2.2-4.5-.3-2-.4-4,.7-5.9,0-1.3.7-2.2,1.4-3.2,1.3-1.6,2.6-3.2,4.8-3.5,1-1.4,2.6-1.7,4.2-1.3,2,.4,3.3,1.6,4.8,3l1.9,1.9h0ZM370.6,210.8c1.7-4,0-6.5-2.9-9.4s-3.2-2.6-5.1-1.6c-1.3.6-2.7,1.6-3.6,2.5-2.9,2.3-3.8,7.2-3,10.7.3,1.3,1.9,2.5,3,3,1,1,2.2,1.2,3.5.4,4.2.7,6.7-2.2,8.1-5.5h0Z"/>
  <path class="st7" d="M367.7,201.4c2.9,3,4.8,5.3,2.9,9.4-1.4,3.3-3.9,6.2-8.1,5.5-1.3.9-2.5.7-3.5-.4-1.2-.6-2.7-1.6-3-3-.9-3.5,0-8.4,3-10.7,1-.9,2.5-1.9,3.6-2.5,1.9-.9,3.9.4,5.1,1.6h0ZM364.1,210.1c1.4-1,1.4-2.2,1.2-4,0-.7-1.3-1.4-2.3-1.4s-3.6.9-3.2,3.5c.1,1,.4,1.9,1,2.3.9.6,2.5.1,3.2-.3h.1Z"/>
  <path class="st4" d="M365.3,206c.3,1.7.3,3-1.2,4-.9.6-2.3.9-3.2.3-.6-.4-.9-1.3-1-2.3-.6-2.6,2.5-3.5,3.2-3.5s2.2.7,2.3,1.4h-.1Z"/>
  <path class="st0" d="M360.5,184.9l-3.2,7.1-1.7,2.7-5.9,12.9c-1,2.2-2,4-2.9,6.2-.7,1.7-1.3,3.6-2.2,5.3l-3.3,6.2-2,3.9c-.3.7-1.3,2.3-2.2,2.2l-3.8-.7c-.3,0-1.2-.7-1.2-1.2s.4-.9.7-1.3l3-5.6c1.7-3.2,2.6-6.4,4.2-9.8l4.8-10.8c1-2.2,2-4.2,2.9-6.4,1.4-3.5,2.9-6.8,4.8-10l8.1-.9h-.1Z"/>
  <path class="st0" d="M350.4,185.8l-2.3,4.3-2.7-3.8c1.9-.6,3.6-.7,5.2-.7h-.1Z"/>
  <path class="st5" d="M344.9,240.3c1,2.2,2.2,6.2,2.2,8.5,0,3.8-.7,7.7-2.5,10.7l-2.2,3.5c-1.2,1.9-2.5,3-4.5,3.8-7.4,2.6-13.6,3.8-19.8-1.3-1.6-1.3-3.8-2.5-4.6-4.3-2.9-6.2-1.4-19.1,4.2-23.4,1.4-1.2,2.6-2.2,4.2-3.2,1.2-.9,3.5-.6,4.8-1,2.5-.7,7.2-.9,9.1,0,1.9.7,3.6,1.7,5.2,2.7.9.6,3.6,3.3,4,4h-.1ZM338,257.7c-.3-3.2,1.6-7.2-.9-10.7-1.3-1.9-3.2-3.2-4.8-4.5-1.6-.3-3.2-1.4-4.8-1.4-5.2-.3-9.5,2.3-10.8,7.8-.7,3,0,6.4.6,9.3,1,1.3,1.7,2.9,3,3.6,3.9,2.6,9.7,4,14,1.2l3.8-5.2h-.1Z"/>
  <path class="st2" d="M277.8,230.2l-1,.9c-5.8,2.7-8.4,5.3-14.6,7.4l-5.2,1.7-3.3,1c-2.7.9-5.3,1.3-8.2,1.4-1,0-2.3.4-3.2.4h-21.8c-4.9,0-13.2-1.3-16.3-1.4h-4l-5.5-.9c-8.4-1.2-20-1.3-26.5-7.5-.3-2.7,1.4-3.3,1.6-6.5,1.2-1.3,6.2-5.1,7.5-5.8l8.1-4.6,8.2-5.1,6.7-3.9,5.6-3.6,2-1.3,5.2-3c2.6-1.6,4.8-3.3,7.1-5.3,4.5-4,5.2-3.3,8.2-5.8l1.2-1c1.2-1.2,2.3-2.2,3.5-3.3l1.9-1.6c3.2-2.6,4.2-3.2,6.8-6.7,1.6-2.2,6.4-2.6,8-1.7l1.4,9.1,1.2,8,1.3,9.1c.1,1.2.9,2.6,1.6,3.5,2-.4,3.8-1.2,5.6-1.3,3.8-.4,2.5-1.9,5.2-7.5l2.9-5.9,3.6-7.7,4.5-10.3,3.2-.4c2-.3,4-.6,6.2-.7l5.5-.3,6.7-.3,5.3-.4h8.8c2.2,0,4.5,1,6.7,1.3l5.6.7,5.1.7,4.3.4c1.7.1,13.7,1.4,10.1,5.1l-9,8.7-1.6,1.7c-1.7,1.7-3.6,2.9-5.3,4.6l-2.2,2.2-6.2,4.9-4.9,3.6c-1.2.9-2.2,2-3.3,2.7-2,1.3-3.6,2.6-5.3,4l-6.5,5.1c-2.7,2.2-24,17.3-22.3,15.6h0Z"/>
  <path class="st4" d="M337.1,247c2.5,3.5.6,7.5.9,10.7l-3.8,5.2c-4.3,2.9-10,1.4-14-1.2-1.3-.9-1.9-2.5-3-3.6-.6-2.9-1.3-6.2-.6-9.3,1.3-5.3,5.5-8.1,10.8-7.8,1.6,0,3.2,1.2,4.8,1.4,1.7,1.3,3.6,2.6,4.8,4.5h.1ZM336.5,252.5c0-2.5-1.4-5.2-3.5-6.7-3.3-2.5-2.2-1.7-6.4-2.9-.9.3-2.3.3-3.2.6-2.6,1.3-5.2,4.6-4.9,7.2l.3,3.3c.1,1.9.9,4.8,2.6,5.8,1,.6,2.2,1.2,3.3,1.6,1.6.7,3.5.9,5.2.9,4.2-.1,6.5-6.7,6.5-10h0Z"/>
  <path class="st7" d="M333,245.8c2,1.4,3.5,4.2,3.5,6.7s-2.3,9.8-6.5,10c-1.7,0-3.6,0-5.2-.9-1.2-.6-2.3-1-3.3-1.6-1.7-1-2.5-3.9-2.6-5.8l-.3-3.3c-.3-2.7,2.3-6.1,4.9-7.2.7-.4,2.2-.3,3.2-.6,4.3,1.2,3.2.6,6.4,2.9h0ZM330.3,255.2c1.3-1.6,1-4.2,0-5.9-.7-1.4-2.9-1.9-3.8-.6-2,.6-2.6,2.3-2.5,4.2,0,1.7.9,2.9,2.7,3.2,1,.1,2.6.3,3.5-.7h0Z"/>
  <path class="st1" d="M336.9,113.5c-1.2.7-2.2,1.3-3.2,2l-7.2,4.5-6.1,3.9c-1.6,1-2.9,2-4.3,3.3l2.3-.7-2.7,1.9.4-1.4-5.8,3.6h-.1c-.3-.4-.6-1.2-1-1.3-7.5-6.2-9.1-7.2-18.8-7.5l-11.6-.3h-12.1l-10.1-.3h-12.9c0-.1-17.1-.6-17.1-.6h-25.7c1-1,2.3-1,3.5-1.7l5.5-3.5c1.2-.7,2.6-1.3,3.8-2.2,2-1.6,4.5-2.5,6.5-3.9,1.9-1.3,3.3-2.6,5.5-3.5,1-.4,1.9-1.2,3.2-1.2h21.3l18.5.3c11.9.1,23.3.9,35,.7h15.5c6.7-.3,13.2,3.5,17.9,8.1h0v-.3Z"/>
  <path class="st4" d="M330.3,249.3c1,1.7,1.2,4.3,0,5.9-.9,1-2.5.9-3.5.7-1.9-.3-2.6-1.4-2.7-3.2,0-1.9.4-3.6,2.5-4.2.9-1.3,3-.9,3.8.6h0ZM328.8,252.5c0-.4-.3-.7-.7-.7s-.7.3-.7.7.3.7.7.7.7-.3.7-.7Z"/>
  <path class="st0" d="M317.4,221.9c1.7,4.5,3.9,6.1,4.9,10-1.3.6-2,.9-3,1.6l-2.5,1.4c-.6-1-1.2-1.9-1.6-2.7l-2.3-4.9c-.7-1.3-1.3-2.7-1.9-4.2l-1.9-4.5-2.5-5.9,3.5-3.2c.6.3,1.6.9,2,1.3,1.6,2,2.6,4.3,3.6,6.7l1.7,4.5h-.1Z"/>
  <path class="st2" d="M310.3,130.4l.6.9-5.3,3.5v-1.2c-.4.3-1.2,1-1.4,1.6-.1-.3-.3-.6-.4-.4l-.9.4v1c0,1.2-1.7-.1-3,.6-.7.4-1,1-1.2,1.9l-.9-.9c-.3-.3-1.2.4-1.4.6l-.4.4h1l-2.3,1.7-.7-1.3-6.7,3c-3,1.4-14,4-17.8,4.6-2.3.4-4.5,0-6.7.6-3,.7-6.2.4-9.4.6-2.2.1-4.2,0-6.4,0h-16.3c-2.6,0-5.3-.3-8.1-.3-4.6,0-8.8-1-13.3-1.6-5.8-.7-18.8-2.3-23.7-4.6-1.6-.7-3.6-1.6-5.1-2.5-.4-.3-1-1.2-1.6-1.3-.6-.9-.6-3.6.4-4.3l3.3-2.5,2.3-1.7c1.7-1.3,3.9-2.2,5.9-3.3l7.1-4.2c3.3.1,6.5.3,10,.1h11.7l35.6.6,14.9.3h11.4l14.9.6c3.6,0,11.1,5.2,12.4,8.1l-1.9,1.2c1.3-.4,2.3-1,3.5-1.7,0-.1-.1-.4-.3-.7h.1v.3Z"/>
  <path class="st0" d="M279.3,147.6l6.7-2.2c-1.2,3.2-2.3,5.8-3.8,8.8l-2.9,6.1-3.2,7.4-1.3,2.7-1.7,4-4.3,9.7-3.2,6.5c-.4.9-.9,1.4-1.4,2.3-.7,1-1,3-1.6,4.2l-1.7,2.9-2.9.6c-.3,0-1.3,0-1.3-.3l-.3-1.4c-.6-2.5-1-4.9-1.6-7.5l-2.2-11.9-1.2-7.8c-1.2-6.9-2.2-8.4-3-16.3,0-1.4-.4-2.6-.7-4.3l3.8-.4c1.2,0,1.6.9,1.7,1.7l.9,5.2,1.4,7.7c.4,2.3.7,4.5,1.2,6.8l1.6,9.7c.3,1.7.7,3.8,2.6,4.5l1.7-3.3,4.9-9.7,6.4-13.9,5.3-11.7h.1Z"/>
  <path class="st6" d="M275.5,59.4c.6,2.6,2.9,4,5.5,3.9-1,2.5-3,4.6-5.3,6.1-1.2.7,0,1.6-5.3,4.2-3.8,1.7-4.9,1.9-9,2h-5.9c-.3.1-5.1-.3-4.5-1.3,1.6-.9,2.9-1.4,3.9-2.6-.3-.9-1.4-.7-2.3-.4l-2.6.9c-2.5.7-5.1,1-7.7,1.3-1.7.3-3.3.7-5.2.3-2.2-.4,4.8-3.8,2.5-6.1-.3-.3-1.4-.4-2.7-.4l2-2.6c2.5,2,5.1,2.7,8.1,3.3,2.9.6,5.1-.1,7.7-1.3,2-.9,3.6-1.6,5.2-3.6l3-3.9,1.6-3,.7-1.6c.6-1.3,6.8.6,8.2,1l2.9,1c-.4.9-1.2,2-1,2.7h.3Z"/>
  <path class="st2" d="M276.5,148.8l-6.7,14.2c-1,2.3-1.7,5.1-3.3,6.9l-7.7.7c-.4-.3-.7-1.4-.9-2.2l-1-5.2-2.2-12.6,17.3-1c1.4,0,2.7-1.6,4.5-.9h-.1Z"/>
  <path class="st5" d="M276.4,43.5c.3,4.9,0,3.3-2,7.7-2.2,2.2-5.3,2-7.7.6-3.2,0-3.6,1.7-5.1,4.6-2,3.9-4.9,7.4-9,9.3-1.2.6-2.3.4-3.6.1-2-.4-4.5,0-6.4-1.4-3.8-2.6-5.6-3.8-7.8-7.8-2.5-4.5-1.3-6.1.4-10,1.9-4.6,8.4-7.2,12.9-6.9l5.9.4c1.9,0,4.2,1.3,5.8-.3l2-2.2c1.4-1.4,2.3-4.3,4.6-4.9,2.5-.6,5.2,1,7.1,2.5.6.4,1.2,1.6,1.4,2.3,1.2,2,1.3,3.9,1.4,6.2h-.1ZM272.5,50.5c3.3-2.5,3.3-8.1,1.4-11.7-1.2-2.2-2.6-3.3-5.1-3.8-1.6-.3-2.5.1-3.6,1.2-2.6,2-4.5,5.6-2.9,9,.4,1,1.2,2.6,1.6,3.6.3.7,4.5,2.9,5.5,2.7,1.2-.4,2.2-.7,2.9-.9h.1ZM258.1,54.5c.4-5.8.4-6.9-3.8-10.8l-2.5-.7c-3.6-1.2-8,0-10.3,3l-3.2,3.8-.4,6.2c1.6,4.8,5.8,6.9,10.6,7.1,3.6,0,6.9-1.4,8-5.3,1.3-.6,1.6-1.9,1.6-3.2Z"/>
  <path class="st4" d="M274,38.8c1.9,3.6,1.9,9.3-1.4,11.7-.7.1-1.7.4-2.9.9-1.2.3-5.2-2-5.5-2.7-.4-1-1.2-2.6-1.6-3.6-1.6-3.3.3-6.9,2.9-9,1.3-1,2.2-1.4,3.6-1.2,2.5.4,3.9,1.7,5.1,3.8h-.1ZM271.9,48.3c2.2-1.7,3.3-7.4-1.2-10.6-1.3-.9-2.7-1.3-4,0l-1.7,1.6c-.9,3.3-.3,7.1,2.5,9.3,1.3,1,3.3.6,4.5-.3h0Z"/>
  <path class="st3" d="M270.6,37.8c4.5,3,3.3,8.8,1.2,10.6-1.2.9-3.2,1.3-4.5.3-2.7-2-3.5-5.9-2.5-9.3l1.7-1.6c1.3-1.2,2.7-.9,4,0h0ZM271.7,40.8c-.3-.6-.9-1.9-1.3-2.5-.6-.6-2.5,0-2.7.6l-1.6,2.3c.3,1.6.6,3.3,1.2,5.1,3.6-.3,2.6-2.6,4.6-5.3h-.1Z"/>
  <path class="st1" d="M271.3,81.4c0,.3-.9.7-1.2.9l-8.7.7-2.9.3h-2.3c0,.1-3.2.4-3.2.4h-4.2c-.9,1.3-2.2,3-4,2.5l-4.2-1.3c-3.5-1.2-4.5-2.2-7.5-3.8l-6.9-3.5-5.5-2.7-2.3-1.7-3.2-2.2c1.4-.9,2.9.3,4.2,0l8.4-1.2c1.4-.1,2.9-.3,4.3-.3h4.5l-1.3,2c-.4.7-.9,1.3-1.6,2.3-.4.6.6,1.9,1.4,2.2,1.9.6,3.8.1,5.6-.1l5.8-1.2,1,1.9c.6,1,2.3.3,6.1,1.3,1,.3,2.7,0,3.9,0h3.5c2.5,0,4.8-.3,7.4-.6,1.2,0,2.2,2.2,2.5,3l.4,1.2h0Z"/>
  <path class="st4" d="M270.3,38.3c.6.6,1.2,1.7,1.3,2.5-2,2.9-.9,5.1-4.6,5.3-.4-1.7-.9-3.5-1.2-5.1l1.6-2.3c.4-.6,2.3-1,2.7-.6h.1Z"/>
  <path class="st2" d="M265.7,171.9l-2.6,5.2-2.3,5.3-.9-3.2c-.4-1.9,0-3.2-.9-6.7l6.7-.9h0Z"/>
  <path class="st6" d="M257.6,26.3l4.6,6.5c-1.2,1.2-1.9,2.5-2.7,4-1,2-7.4-.6-10.8-.3-2.7.1-5.2.9-7.8,1.7-2.5.9-8.8,5.8-8.7,9.3h-4.2c0-.1-4.5-.3-4.5-.3-4.3,0-6.7-1.7-9.7-2.5-1.6-.4-2.5-1-3.8-1.9-3.5-2.5-6.4-5.2-9.3-8.2-1.3-1.4-3.5-3.2-3.3-4.8h.4l.4.7c.4,0,1.6-.4,1.7-.9.7-1.4-1.3-2.5-1-3.6l3.8,1.4c.4.1,1.2.4,1.4.1.3-.3.3-1.2.3-1.4-.6-1.4-1.3-2-2.5-2.9-1.3-1-2.3-2.2-3.8-3.9,4.5-1.2,16.6,5.3,20.8,7.7,2.6,1.4,4.9,3.3,7.2,5.2.7.6,1.6,1.4,2.5,1.4s1.2-1,1-1.3c-.4-2-2.2-1.2-3.5-2.6-.7-.9-1.4-1.4-2.5-2.2-.9,0-.6,0,0-.3l4.6-1.4c.9-.3,2.3-.4,3.5-.6,7.1-1.3,5.5-.4,11.3-.9l3.3-.3c-2.3-1.2-5.1-2-7.7-1.7l-8.5.7c-1.6,0-2.6-.9-2.3-.1,0,.4-.3.6-.9.9v-.9h.1c-.9-1.3-1.6-2.5-2.6-3.8.3-.4,1.4-.4,2.2-.3l2.5.9c.1,0,.6,0,.7.1.1,0,.3-.6.3-.7v-2.5l1.4-.6c1.7-.7-2.5-5.3-3.5-5.9v-.3l5.9,1.9c2.5.9,4.6,1.9,6.7,3.3l3.8,2.5c3.2,2.2,6.2,4.2,9.5,6.1,1.3.7,2.6,1.9,3.5,3h0v-.6Z"/>
  <path class="st4" d="M254.2,43.7c4.2,3.9,4.3,5.1,3.8,10.8,0,1.2-.3,2.5-1.6,3.2-1,3.9-4.3,5.3-8,5.3s-9-2.2-10.6-7.1l.4-6.2,3.2-3.8c2.5-2.9,6.7-4.2,10.3-3,0,0,2.5.7,2.5.7ZM252.1,59.4c4-2.5,5.3-8.1,2.7-12l-2.9-1.9c-2.6-.9-5.8-.4-8,1.2-3.9,2.6-3.5,5.2-3.5,9.4,1.7,2.7,4,4.2,7.5,4.5,1,0,3-.4,3.9-1h.1Z"/>
  <path class="st3" d="M254.8,47.4c2.5,3.9,1.3,9.5-2.7,12-.9.6-3,1.2-3.9,1-3.3-.3-5.6-1.7-7.5-4.5,0-4-.4-6.7,3.5-9.4,2.2-1.6,5.3-2,8-1.2l2.9,1.9h-.1ZM252.8,54.4c1.3-.9,1.2-4.8-.6-5.8-2.2-1.2-2.9,0-5.9,0l-1.6,3.2c-.3.4,0,1.4.3,1.7,1.3,1.3,2.3-1.6,5.8.6.6.3,1.7.6,2.3.1h-.3Z"/>
  <path class="st4" d="M252.2,48.6c1.7,1,1.9,4.8.6,5.8-.4.3-1.7,0-2.3-.1-3.3-2.2-4.5.9-5.8-.6-.3-.3-.4-1.3-.3-1.7l1.6-3.2c3,0,3.8-1.3,5.9,0h.3Z"/>
  <path class="st2" d="M247.6,162.4l1.6,9c-3.8-.9-8.2.9-10.3,3.8-1.6,2.3-3.3,4.3-5.8,5.6-2.6-.7-5.1-1.2-7.8-.9-1.2,0-2.5-.6-3.5-.7-1.3-.1-2.5-.3-3.6-.7-4.6-1.4-7.5-1.3-12.4-3.3-4-.4-11.9-3-15.6-4.6-1.3-.6-2.6-.9-3.9-1.3l-6.7-2.5-3.8-1.4-4.3-1.6c-1.6-.6-3.8-.4-5.2-1.3-.4-1.7-.9-3.8-1-5.3l-.3-3.8-.4-7.2c0-2.2,0-4.3.1-6.5v-6.9c.3-3.3.7-6.5,1-10l.3-3.3c0-1.4,0-3.3.4-4.8l1.4-5.2c1.2-4.5,1.4-3.2,3.3-8,1-2.6,2.7-4.8,5.8-5.8,2.3-.7,8.7.1,13,0,.9,0,2.3.7,3,.6h1.6c-2.5,4-3,8.1-2,12.7.6,2.5.6,5.2,2,7.4l2,3-5.6,3.8c-2,1.3-4.3,2.2-6.2,4s-1.4.4-1.9.7c-1.4.9-3.3,2.2-5.2,3-.4,1.7-1.3,4.3-1.3,6.2.4,2.7,1.7,4.6,4.2,5.6l2.6,1c5.2,1.9,2.9,1.7,7.8,2.7,3,.6,5.8,1.3,8.8,1.7l12.1,1.6c2.7.4,5.6.9,8.4,1h6.7c6.2.6,11.7-.4,18.5.1l1.9,11.4h.1Z"/>
  <path class="st6" d="M238.8,64.8l-2,2.6c-1.6,0-3.3.1-4.2.3l-10.4,1c-5.5.6-.9,0-7.7-.6,2.2-1.4,3.2-3.2,3.6-5.3-5.1,0-11.1.3-15.8-2,1.3-1.3,2.6-1.3,4.2-1.9l3.9-1.4c.6-.1,1.2-1,1.3-1.6,0-.4-1.2-1.6-1.7-1.3-2.3.9-5.8,1.4-8.1-1.2l5.5-1.3c.3-.3.9-1.2,1.2-1.2.4,0,1.2.3,1.6.4l1.2.4c1.6.6,3,1,4.8,1.3l6.2,1.3c1.9.4,7.1.4,9.3-.4,1,5.1,3.6,7.8,7.4,10.8h-.1Z"/>
  <path class="st6" d="M242.8,88.8c-2.6,2.3-5.1,4.2-7.8,6.1-.6.4-1.2,1.2-1.7,1.6l-5.8,4.6c-2.2,1.7-9.4,5.8-11.4,7.2l-4.3,2.9h0l-5.1,2.6c-1,.3-3-8.1-3.2-9.4-.6-3.2,3.5-7.4,4.2-10.1l-2.3-.7,5.2-7.5,3.5-5.3c.1-.3,0-1.4-.4-1.4-1.9-.4-2,1.6-3.3,1,1.3-2.3,3.3-4.2,5.3-6.1l2,1.2c1.9,1,3.8,2.3,5.8,3.2,9,3.8,11.3,6.8,19.4,10.3h0Z"/>
  <path class="st5" d="M231.5,49c0,.9,0,2.3-.3,2.7l-3.9.4c-2.5.3-4.8-.1-7.2-.7l-7.4-1.6c-.9-.1-2.3-1.3-3-1.7-.7-.6-2-2.9-1.3-2.6l.7.3c.9.3,2,1.2,2.7,1.3l4.5,1.3c3.6,1,5.2,1.3,8.8,1l6.4-.4h0Z"/>
  <path class="st1" d="M215.4,64.9l-3.3,2.3c-.1,0-.9.4-1,.6-.3,0-.1.6-.3,1.2-2,.6-4.3-.6-4.9-2.7l1.2-2.2h6.1c.7.3,1.7.6,2.3.9h0Z"/>
  <path class="st1" d="M190.5,55.5c-1.3-.3,12.3.6,14,1.6.6.3-6.4,2.6-5.1,3.6,1.7,1.4,3.2,2.3,4.9,3.5-1.2,1.2-2.7.9-4.2.6-4.5-.6-8.7-2-12.4-4.3-.9-.6-1.6-1.2-2.3-1.9-1.3-1-2.6-1.3-3.9-2.9,2.2-.6,3.8-1.2,5.8-.9l3.3.6h-.1Z"/>
  <path class="st0" d="M204.2,115.7l-4.8,2.5c-3.8-4.2-5.1-9.4-4.3-15,.7-5.9,6.8-12.7,8.5-11.3.6.4-.7,1-.9,2.9,0,.4.7,1,1.2,1.3-.7,1.6-2,3.3-2.2,5.1l-.4,4.6c-.1,2.5,2.2,6.5,2.9,10.1h0Z"/>
  <path class="st1" d="M198.1,50.2l2,1.3c-1.2.9-1.4,1.6-1.9,2.5l-5.3-.6c-2.5-3.8-4.5-3.6-6.5-7.4,1.4-.4,2.3,0,3.3.3l4.5,1.3c1.4.4,2.7,1.7,4,2.6h-.1Z"/>
  <path class="st1" d="M172,95.7c.1,1-.9,1.6-1.3,2.2-.9,1.6-1.4,3.3-2.2,5.1l-1.2,2.5c-1.3,2.7-2.2,5.9-2.5,8.8l-.7,7.7-.3,3-.6,7.2c-.1,2.3-.3,4.5-.1,6.8v9l.3,3.9c.1,2.3,0,6.4-.3,9.1-2.2-.6-4-1.2-5.9-2-1.4-.7-3-1-4.6-1.7l-6.5-2.9c-1-.4-2.6-.4-3.5-1-1.3-.9-2.3-1.3-3.6-1.9l-8-3.5c-2-.9-2.3-2.7-2.6-4.8l-.4-3.5c-.4-3.2-.3-6.1-.3-9.3v-4.8c-.1,0,0-8.1,0-8.1,0-1.4.1-3,.4-4.5l.4-2.3c.3-1.2.6-2.7,1-3.8l2.5-6.2c1-2.6,2.6-3.3,4.2-4.9l1.6-1.6c2-.4,4.2-.3,6.2,0l5.2.3,9,1h5.3c0-.1,4.5,0,4.5,0,1.3,0,2.6.1,4,.3h-.1Z"/>
  <path class="st2" d="M134.1,94l-2.3,2.6c-1.2,1.3-2.2,3.3-2.7,4.9l-1.2,2.7c-2.3,5.9-2.6,12-2.9,18.4-.3,5.5.1,3,.1,8.5s-.1,10.4,1.2,14.7c-6.9-3-12-6.2-18.8-9.4-2.3-1-4.5-2-6.7-3.3l-2.9-1.6-13.6-7.5-10.4-6.7c1.3-.9,6.5-1.4,7.8-2l10-3.8c1.2-.4,2.2-1,3.3-1.6l11.7-4.9c1-.4,5.5-3.9,6.4-5.2.6-3.2-2.5-3.9-4.6-5.1l-2.9-1.4c2.5-.4,4.8-.1,7.2-.1h2.6c1.3,0,2.6.1,3.9.1,2.6,0,4.9,0,7.4.1l7.4.3h0Z"/>
  <path class="st2" d="M112.3,91.2h-5.5c-2.5,0-4.8-1.3-9.3-.9.3-2.5-.3-3.5-.4-7.1,0-1.7-.4-3.3-.7-5.2-1-6.8-1.2-5.3,1.9-11.7,1-2,2.3-4.2,4.3-5.2,1.3-.7,2.7,1,3.5,2.2,2.3,3.3,3.5,7.1,4.3,11l.9,3.6c.7,3.5,1.3,6.4,1.2,10,0,1.2-.3,1.9,0,3.3h-.1Z"/>
  <path class="st2" d="M109.1,97.3l2.3,2c-1.2,1.2-2.2,1.7-3.6,2.5-1.4.9-3,2.2-4.6,2.7-5.8,2-10.8,5.2-14.2,6.2l-13.9,4c-2.6.7-5.2,1.3-7.8,1.7-5.1.7-9.8,1.7-14.7,2.9l-4.8,1.2-2.5.6-4.6.9c-3.6.7-7.2,1.2-11,1.2l-12.6-.3h-3.9c-1.7-.3-3.5,0-5.2-.4l-3-.7-2.6-2.5c1.2-2.3,2.9-4.5,5.2-5.9.6-1.3,1.7-1.7,2.9-2.5,3.8-2.2,5.6-3.5,9.1-6.2,2.9-2.3,14.5-9.7,17.5-10.7,2.2-.6,4-1.4,6.2-2,5.3-1.3,11-1.2,16.6-1.2h17.3l4.6.3,5.9.6c10.6,1,11.4,2.2,21.4,5.6h-.1Z"/>
  <path class="st7" d="M94.9,83.4l.4,7.2c-1.7-.3-3.3-.7-4.9-.9l-7.5-.4-12.3-.6h-17.1c-1,0-2.3-.1-3.3,0l-6.1.9c-1.4.1-2.7.1-3.9,1.3l-2.9.9c-2.2-.3-4.5-1.7-6.5-3.2l-2.9-2.3c-.7-.6-1.3-1.3-1.9-2l-3.2-3.6c-3.3-3.9-3.3-7.5-4.2-11.6l-1.2-5.9c-.6-3-.3-6.1-.1-9.3l.3-7.8c.3-9.1,2.7-17.5,5.1-26.3,1.4-5.5,2.9-10.7,6.9-15,1.2-1.2,3.6-1.4,5.2-1.9,1.3-.3,2.3-.3,3.5,0,3,.6,5.6,1.7,7.7,4.2.4.6,1.6,1.2,2.2,1.6l3.8,3.2c.7.6,1.2,1.2,1.9,1.9l1.9,1.9,2.9,3,3.9,4.3,4.2,4.5,4.2,4.3,5.2,5.8c.7.9,1.4,2,2.2,3l4.9,6.8c3.9,5.5,6.4,11.7,8.4,18.1l1,3c1.3,4,2.2,10.6,2.5,14.7h-.1Z"/>
  <path class="st0" d="M64,119.3c-1.7,3-3.8,4.9-6.4,6.9l-1.2.9c-.3.3-1.3-.3-1.6-.6l-1.9-1.4,3.2-3.9c2.5-.9,5.2-1.4,7.8-1.9Z"/>
  <path class="st5" d="M56.7,130.9c2.2,3,1.4,6.8-.6,9.8-1.6,2.3-5.5,4.5-8.7,3.5-1.6-.4-3.2-1.6-4.8-2.5-1.6-1-3.5-3.9-3.8-5.3-.6-3.2.7-6.8,3.3-8.8,2.7-2.2,7.4-2.6,10.3-.7,1.6,1,3.2,2.6,4.2,4h0ZM50,140.5c1-.3,4.2-3.3,3-5.6-1.2-2.5-3.5-4.6-6.4-4.5-1.7,0-3.9,1.2-4.8,2.5-1.2,1.9-1.3,4.6.3,6.1,1.2,1.2,2.9,1.9,4.6,2.6l3-1h.1Z"/>
  <path class="st4" d="M53.1,134.9c1,2.3-2,5.3-3,5.6l-3,1c-1.6-.7-3.5-1.4-4.6-2.6-1.6-1.6-1.4-4.2-.3-6.1.9-1.3,3-2.3,4.8-2.5,2.9,0,5.2,2,6.4,4.5h-.1ZM50,138.2c1.4-1.4,1.2-3.9-.4-5.3-.9-.7-1.9-1-2.9-.9-1.2.1-3.8,2.5-3.8,3.9s.6,1.6,1.2,2.2c1.4,1.3,4.2,1.7,5.8.1h.1Z"/>
  <path class="st7" d="M49.5,132.9c1.6,1.3,1.9,3.9.4,5.3s-4.3,1.2-5.8-.1c-.6-.6-1.2-1.4-1.2-2.2,0-1.4,2.5-3.6,3.8-3.9,1-.1,2,.3,2.9.9h-.1Z"/>
</svg>